<svg width="43" height="52" viewBox="0 0 43 52" fill="none" xmlns="http://www.w3.org/2000/svg">
<path d="M36.8541 33.3225C40.3581 33.3225 42.1101 34.7385 42.1101 37.5705C42.1101 40.4505 40.3581 41.8905 36.8541 41.8905H34.1901V45.9945C34.1901 47.8185 33.6861 49.2105 32.6781 50.1705C31.6701 51.1305 30.3501 51.6105 28.7181 51.6105C27.0861 51.6105 25.7661 51.1305 24.7581 50.1705C23.7501 49.2105 23.2461 47.8185 23.2461 45.9945V41.8905H5.75006C4.26206 41.8905 3.08606 41.4585 2.22206 40.5945C1.35806 39.6825 0.926063 38.5545 0.926063 37.2105C0.926063 35.8665 1.38206 34.5225 2.29406 33.1785L23.7501 2.50646C24.3261 1.69046 25.0461 1.09047 25.9101 0.706464C26.7741 0.274464 27.6861 0.0584641 28.6461 0.0584641C30.1341 0.0584641 31.4301 0.562465 32.5341 1.57047C33.6381 2.53047 34.1901 3.87446 34.1901 5.60247V33.3225H36.8541ZM12.2301 33.3225H23.2461V17.4825L12.2301 33.3225Z" fill="#EB6A51"/>
</svg>
