<svg width="37" height="52" viewBox="0 0 37 52" fill="none" xmlns="http://www.w3.org/2000/svg">
<path d="M30.8461 42.1785C34.3501 42.1785 36.1021 43.6665 36.1021 46.6425C36.1021 49.6665 34.3501 51.1785 30.8461 51.1785H6.22206C2.67006 51.1785 0.894063 49.6665 0.894063 46.6425C0.894063 43.6665 2.67006 42.1785 6.22206 42.1785H12.9181V12.7305L6.58206 16.5465C5.86206 16.9785 5.14206 17.1945 4.42206 17.1945C3.22206 17.1945 2.19006 16.6905 1.32606 15.6825C0.510063 14.6745 0.102063 13.5465 0.102063 12.2985C0.102063 10.6185 0.846063 9.34646 2.33406 8.48246L13.7101 1.64247C15.3901 0.634464 17.0701 0.130463 18.7501 0.130463C20.3341 0.130463 21.6301 0.634464 22.6381 1.64247C23.6461 2.60246 24.1501 3.92246 24.1501 5.60247V42.1785H30.8461Z" fill="#EB6A51"/>
</svg>
