<svg width="38" height="53" viewBox="0 0 38 53" fill="none" xmlns="http://www.w3.org/2000/svg">
<path d="M28.5865 26.0425C31.5625 26.9065 33.8425 28.4185 35.4265 30.5785C37.0585 32.6905 37.8745 35.2825 37.8745 38.3545C37.8745 41.2825 37.1065 43.8265 35.5705 45.9865C34.0825 48.1465 31.9225 49.8265 29.0905 51.0265C26.2585 52.1785 22.9705 52.7545 19.2265 52.7545C16.1065 52.7545 13.1065 52.2985 10.2265 51.3865C7.3945 50.4745 4.9465 49.2025 2.8825 47.5705C2.1625 47.0425 1.6345 46.4665 1.2985 45.8425C1.0105 45.2185 0.8665 44.4985 0.8665 43.6825C0.8665 42.4345 1.2265 41.3785 1.9465 40.5145C2.6665 39.6025 3.5305 39.1465 4.5385 39.1465C5.1145 39.1465 5.6425 39.2425 6.1225 39.4345C6.6025 39.5785 7.2025 39.8665 7.9225 40.2985C10.0345 41.4985 11.8585 42.4105 13.3945 43.0345C14.9305 43.6585 16.7305 43.9705 18.7945 43.9705C21.7225 43.9705 23.8585 43.4425 25.2025 42.3865C26.5465 41.2825 27.2185 39.5785 27.2185 37.2745C27.2185 35.0185 26.5225 33.3865 25.1305 32.3785C23.7385 31.3705 21.5065 30.8665 18.4345 30.8665H14.1865C12.9385 30.8665 11.9545 30.4345 11.2345 29.5705C10.5145 28.7065 10.1545 27.6745 10.1545 26.4745C10.1545 25.3225 10.5145 24.3145 11.2345 23.4505C11.9545 22.5865 12.9385 22.1545 14.1865 22.1545H17.2105C20.1385 22.1545 22.2985 21.6505 23.6905 20.6425C25.1305 19.6345 25.8505 18.0745 25.8505 15.9625C25.8505 13.9465 25.2505 12.3865 24.0505 11.2825C22.8505 10.1305 21.1705 9.55447 19.0105 9.55447C17.2345 9.55447 15.5785 9.86647 14.0425 10.4905C12.5065 11.1145 10.7305 12.0265 8.7145 13.2265C7.9945 13.6585 7.3945 13.9705 6.9145 14.1625C6.4345 14.3065 5.9065 14.3785 5.3305 14.3785C4.3225 14.3785 3.4585 13.9465 2.7385 13.0825C2.0185 12.1705 1.6585 11.0905 1.6585 9.84247C1.6585 8.97847 1.8025 8.25847 2.0905 7.68246C2.4265 7.05846 2.9545 6.48246 3.6745 5.95447C5.6905 4.32246 8.0905 3.05046 10.8745 2.13846C13.7065 1.22646 16.5865 0.770463 19.5145 0.770463C22.9225 0.770463 25.9225 1.34646 28.5145 2.49846C31.1065 3.60246 33.0985 5.18646 34.4905 7.25047C35.8825 9.31447 36.5785 11.7145 36.5785 14.4505C36.5785 17.1865 35.8585 19.5865 34.4185 21.6505C33.0265 23.6665 31.0825 25.1305 28.5865 26.0425Z" fill="#EB6A51"/>
</svg>
