<svg width="39" height="53" viewBox="0 0 39 53" fill="none" xmlns="http://www.w3.org/2000/svg">
<path d="M32.8029 43.1785C36.3549 43.1785 38.1309 44.6665 38.1309 47.6425C38.1309 50.6665 36.3549 52.1785 32.8029 52.1785H6.01891C4.53091 52.1785 3.33091 51.7465 2.41891 50.8825C1.55491 49.9705 1.12291 48.8425 1.12291 47.4985C1.12291 45.7705 1.81891 44.1865 3.21091 42.7465L19.0509 25.9705C22.6029 22.2265 24.3789 18.7705 24.3789 15.6025C24.3789 13.6345 23.8269 12.1465 22.7229 11.1385C21.6189 10.0825 20.0109 9.55447 17.8989 9.55447C16.0749 9.55447 14.3949 9.86647 12.8589 10.4905C11.3229 11.1145 9.54691 12.0265 7.53091 13.2265C6.71491 13.7065 6.09091 14.0425 5.65891 14.2345C5.22691 14.4265 4.72291 14.5225 4.14691 14.5225C3.13891 14.5225 2.27491 14.0665 1.55491 13.1545C0.834906 12.1945 0.474906 11.0905 0.474906 9.84247C0.474906 8.93046 0.618906 8.18646 0.906906 7.61047C1.24291 6.98646 1.77091 6.43446 2.49091 5.95447C4.65091 4.37047 7.12291 3.12247 9.90691 2.21047C12.7389 1.25046 15.5709 0.770463 18.4029 0.770463C21.8109 0.770463 24.7869 1.34646 27.3309 2.49846C29.9229 3.65047 31.9149 5.30647 33.3069 7.46646C34.6989 9.57846 35.3949 12.0265 35.3949 14.8105C35.3949 17.7385 34.7709 20.4505 33.5229 22.9465C32.3229 25.4425 30.2829 28.2265 27.4029 31.2985L16.0989 43.1785H32.8029Z" fill="#EB6A51"/>
</svg>
